<?xml version="1.0" encoding="UTF-8" standalone="no"?>
<svg
   viewBox="0 0 16 16.000002"
   version="1.1"
   id="svg6"
   sodipodi:docname="plant-seed.svg"
   width="16"
   height="16.000002"
   inkscape:version="1.2.2 (b0a8486541, 2022-12-01)"
   xmlns:inkscape="http://www.inkscape.org/namespaces/inkscape"
   xmlns:sodipodi="http://sodipodi.sourceforge.net/DTD/sodipodi-0.dtd"
   xmlns="http://www.w3.org/2000/svg"
   xmlns:svg="http://www.w3.org/2000/svg">
  <defs
     id="defs10" />
  <sodipodi:namedview
     id="namedview8"
     pagecolor="#ffffff"
     bordercolor="#000000"
     borderopacity="0.25"
     inkscape:showpageshadow="2"
     inkscape:pageopacity="0.0"
     inkscape:pagecheckerboard="0"
     inkscape:deskcolor="#d1d1d1"
     showgrid="false"
     inkscape:zoom="0.84667969"
     inkscape:cx="107.47866"
     inkscape:cy="299.40484"
     inkscape:window-width="1920"
     inkscape:window-height="1001"
     inkscape:window-x="1920"
     inkscape:window-y="0"
     inkscape:window-maximized="1"
     inkscape:current-layer="svg6" />
  <g
     class=""
     transform="matrix(0.03896829,0,0,0.03541441,-1.9758473,-1.0663279)"
     id="g4">
    <path
       d="m 57.64,30.11 c 8.97,28.45 9.68,57.4 11.44,84.59 2.25,34.6 6.13,66 28.32,93.2 1.8,2.3 8.9,6.6 19.3,9.4 10.4,2.8 23.9,4.5 38.5,4.5 25.2,-0.2 53.7,-5.8 76.9,-18.8 C 159,175.6 109.3,130.3 97,71.94 134.8,119.8 168,157 239.5,178.3 c 1.5,-12.6 4.3,-24.4 6.2,-35.1 3.2,-18 3.6,-31 -4.6,-40.6 C 226.9,86.2 191.1,73.01 151.2,61.13 119.7,51.78 86,42.74 57.64,30.11 Z M 369.4,136.3 c -34.3,15.2 -74.2,36.9 -112,44.6 -0.7,6.3 -1.1,12.5 -0.8,18.5 43.5,-7.4 85.9,-31.5 120.1,-46.6 14.9,-5.3 43,-19.5 57.1,-10 14.1,11.7 9.6,34.9 6.4,48.5 -3.8,16.4 -10.3,35.2 -17.3,53 4.6,6.1 8.5,14.2 11,20.6 9.2,-22.6 18.6,-47.6 23.8,-69.5 4.8,-25.4 8.3,-51.6 -13.6,-67.4 -23.6,-14.2 -54.7,-0.4 -74.7,8.3 z m -19,120.9 c -34.7,26.8 -58.4,55 -89.6,73 -31.1,18 -69.6,24 -128.7,6.4 -35.3,-10.5 -56.57,-6.9 -67.89,1.5 -11.31,8.4 -15.37,23.2 -12.73,41.8 5.29,37.3 39.82,83.9 82.22,92 68.2,12.9 125.8,13.7 171.9,0.2 46.1,-13.5 80.9,-40.7 105.4,-85.9 15.4,-28.5 18.4,-79 7.3,-111.5 -11.5,-34.9 -40,-38.2 -67.9,-17.5 z"
       fill="#ffffff"
       fill-opacity="1"
       id="path2" />
  </g>
</svg>
